# xmcd CD database file
#
# Track frame offsets:
#	150
#	24420
#	35133
#	47528
#	70463
#	89570
#	108740
#	125595
#	150048
#	163803
#
# Disc length: 2355 seconds
#
# Revision: 0
# Processed by: cddbd v1.5.1PL0 Copyright (c) Steve Scherf et al.
# Submitted via: CDex 1.51
#
DISCID=8309310a
DTITLE=Stan Getz - Stan Getz, Joao Gilberto ft. Antonio Carlos Jobim
DYEAR=1963
DGENRE=Jazz
TTITLE0=The Girl From Ipanema
TTITLE1=Doralice
TTITLE2=Para Machuchar Meu Coracao
TTITLE3=Desafinado (Off Key)
TTITLE4=Corcovado (Quiet Nights Of Quiet Stars)
TTITLE5=So Danco Samba
TTITLE6=O Grande Amor
TTITLE7=Vivo Sonhando (Dreamer)
TTITLE8=Thei Girl From Ipanema (45 rpm Issue)
TTITLE9=Corcovado (Quiet Nights Of Quiet Stars, 45 rpm Issue)
EXTD=YEAR: 1963
EXTT0=
EXTT1=
EXTT2=
EXTT3=
EXTT4=
EXTT5=
EXTT6=
EXTT7=
EXTT8=
EXTT9=
PLAYORDER=
